<?xml version="1.0" encoding="UTF-8"?><svg xmlns="http://www.w3.org/2000/svg" xmlns:xlink="http://www.w3.org/1999/xlink" fill-opacity="1" color-rendering="auto" color-interpolation="auto" text-rendering="auto" stroke="black" stroke-linecap="square" width="552" stroke-miterlimit="10" shape-rendering="auto" stroke-opacity="1" fill="black" stroke-dasharray="none" font-weight="normal" stroke-width="1" height="488" font-family="'Dialog'" font-style="normal" stroke-linejoin="miter" font-size="12px" stroke-dashoffset="0" image-rendering="auto">
  <!--Generated by ySVG 2.5-->
  <defs id="genericDefs"/>
  <g>
    <defs id="defs1">
      <linearGradient x1="274" gradientUnits="userSpaceOnUse" x2="354" y1="110" y2="150" id="linearGradient1" spreadMethod="reflect">
        <stop stop-opacity="1" stop-color="rgb(232,238,247)" offset="0%"/>
        <stop stop-opacity="1" stop-color="rgb(183,201,227)" offset="100%"/>
      </linearGradient>
      <linearGradient x1="442.72" gradientUnits="userSpaceOnUse" x2="556.28" y1="106.74" y2="153.26" id="linearGradient2" spreadMethod="reflect">
        <stop stop-opacity="1" stop-color="rgb(232,238,247)" offset="0%"/>
        <stop stop-opacity="1" stop-color="rgb(183,201,227)" offset="100%"/>
      </linearGradient>
      <linearGradient x1="461.67" gradientUnits="userSpaceOnUse" x2="541.67" y1="301.8" y2="341.8" id="linearGradient3" spreadMethod="reflect">
        <stop stop-opacity="1" stop-color="rgb(232,238,247)" offset="0%"/>
        <stop stop-opacity="1" stop-color="rgb(51,153,102)" offset="100%"/>
      </linearGradient>
      <linearGradient x1="662.5" gradientUnits="userSpaceOnUse" x2="742.5" y1="110" y2="150" id="linearGradient4" spreadMethod="reflect">
        <stop stop-opacity="1" stop-color="rgb(232,238,247)" offset="0%"/>
        <stop stop-opacity="1" stop-color="rgb(183,201,227)" offset="100%"/>
      </linearGradient>
      <linearGradient x1="442.72" gradientUnits="userSpaceOnUse" x2="560.62" y1="383.28" y2="418.28" id="linearGradient5" spreadMethod="reflect">
        <stop stop-opacity="1" stop-color="rgb(232,238,247)" offset="0%"/>
        <stop stop-opacity="1" stop-color="rgb(183,201,227)" offset="100%"/>
      </linearGradient>
      <linearGradient x1="662.5" gradientUnits="userSpaceOnUse" x2="742.5" y1="205.92" y2="245.92" id="linearGradient6" spreadMethod="reflect">
        <stop stop-opacity="1" stop-color="rgb(232,238,247)" offset="0%"/>
        <stop stop-opacity="1" stop-color="red" offset="100%"/>
      </linearGradient>
      <linearGradient x1="461.67" gradientUnits="userSpaceOnUse" x2="541.67" y1="470.32" y2="510.32" id="linearGradient7" spreadMethod="reflect">
        <stop stop-opacity="1" stop-color="rgb(232,238,247)" offset="0%"/>
        <stop stop-opacity="1" stop-color="rgb(183,201,227)" offset="100%"/>
      </linearGradient>
      <linearGradient x1="422.5" gradientUnits="userSpaceOnUse" x2="576.5" y1="191.52" y2="260.32" id="linearGradient8" spreadMethod="reflect">
        <stop stop-opacity="1" stop-color="rgb(232,238,247)" offset="0%"/>
        <stop stop-opacity="1" stop-color="rgb(183,201,227)" offset="100%"/>
      </linearGradient>
      <clipPath clipPathUnits="userSpaceOnUse" id="clipPath1">
        <path d="M0 0 L552 0 L552 488 L0 488 L0 0 Z"/>
      </clipPath>
      <clipPath clipPathUnits="userSpaceOnUse" id="clipPath2">
        <path d="M259 38 L811 38 L811 526 L259 526 L259 38 Z"/>
      </clipPath>
    </defs>
    <g fill="white" text-rendering="geometricPrecision" shape-rendering="geometricPrecision" transform="translate(-259,-38)" stroke="white">
      <rect x="259" width="552" height="488" y="38" clip-path="url(#clipPath2)" stroke="none"/>
    </g>
    <g fill="url(#linearGradient1)" text-rendering="geometricPrecision" shape-rendering="geometricPrecision" transform="matrix(1,0,0,1,-259,-38)" stroke="url(#linearGradient1)">
      <ellipse rx="40" ry="20" clip-path="url(#clipPath2)" cx="314" cy="130" stroke="none"/>
    </g>
    <g text-rendering="geometricPrecision" stroke-miterlimit="1.45" shape-rendering="geometricPrecision" transform="matrix(1,0,0,1,-259,-38)" stroke-linecap="butt">
      <ellipse rx="40" fill="none" ry="20" clip-path="url(#clipPath2)" cx="314" cy="130"/>
      <text x="300.0254" xml:space="preserve" y="134.1543" clip-path="url(#clipPath2)" font-family="sans-serif" stroke="none">start</text>
    </g>
    <g fill="url(#linearGradient2)" text-rendering="geometricPrecision" shape-rendering="geometricPrecision" transform="matrix(1,0,0,1,-259,-38)" stroke="url(#linearGradient2)">
      <path d="M499.5 106.74 L556.28 130 L499.5 153.26 L442.72 130 Z" stroke="none" clip-path="url(#clipPath2)"/>
    </g>
    <g text-rendering="geometricPrecision" stroke-miterlimit="1.45" shape-rendering="geometricPrecision" transform="matrix(1,0,0,1,-259,-38)" stroke-linecap="butt">
      <path fill="none" d="M499.5 106.74 L556.28 130 L499.5 153.26 L442.72 130 Z" clip-path="url(#clipPath2)"/>
      <text x="454.459" xml:space="preserve" y="134.1543" clip-path="url(#clipPath2)" font-family="sans-serif" stroke="none">Vout &lt; Vmax ?</text>
    </g>
    <g fill="url(#linearGradient3)" text-rendering="geometricPrecision" shape-rendering="geometricPrecision" transform="matrix(1,0,0,1,-259,-38)" stroke="url(#linearGradient3)">
      <path d="M461.67 301.8 L541.67 301.8 L541.67 341.8 L461.67 341.8 Z" stroke="none" clip-path="url(#clipPath2)"/>
    </g>
    <g text-rendering="geometricPrecision" stroke-miterlimit="1.45" shape-rendering="geometricPrecision" transform="matrix(1,0,0,1,-259,-38)" stroke-linecap="butt">
      <path fill="none" d="M461.67 301.8 L541.67 301.8 L541.67 341.8 L461.67 341.8 Z" clip-path="url(#clipPath2)"/>
      <text x="466.6104" xml:space="preserve" y="325.9543" clip-path="url(#clipPath2)" font-family="sans-serif" stroke="none">open relays</text>
    </g>
    <g fill="url(#linearGradient4)" text-rendering="geometricPrecision" shape-rendering="geometricPrecision" transform="matrix(1,0,0,1,-259,-38)" stroke="url(#linearGradient4)">
      <path d="M662.5 110 L742.5 110 L742.5 150 L662.5 150 Z" stroke="none" clip-path="url(#clipPath2)"/>
    </g>
    <g text-rendering="geometricPrecision" stroke-miterlimit="1.45" shape-rendering="geometricPrecision" transform="matrix(1,0,0,1,-259,-38)" stroke-linecap="butt">
      <path fill="none" d="M662.5 110 L742.5 110 L742.5 150 L662.5 150 Z" clip-path="url(#clipPath2)"/>
      <text x="676.6895" xml:space="preserve" y="134.1543" clip-path="url(#clipPath2)" font-family="sans-serif" stroke="none">wait 20T</text>
    </g>
    <g fill="url(#linearGradient5)" text-rendering="geometricPrecision" shape-rendering="geometricPrecision" transform="matrix(1,0,0,1,-259,-38)" stroke="url(#linearGradient5)">
      <path d="M501.67 383.28 L560.62 400.78 L501.67 418.28 L442.72 400.78 Z" stroke="none" clip-path="url(#clipPath2)"/>
    </g>
    <g text-rendering="geometricPrecision" stroke-miterlimit="1.45" shape-rendering="geometricPrecision" transform="matrix(1,0,0,1,-259,-38)" stroke-linecap="butt">
      <path fill="none" d="M501.67 383.28 L560.62 400.78 L501.67 418.28 L442.72 400.78 Z" clip-path="url(#clipPath2)"/>
      <text x="471.9981" xml:space="preserve" y="404.9343" clip-path="url(#clipPath2)" font-family="sans-serif" stroke="none">i &gt; iMax ?</text>
    </g>
    <g fill="url(#linearGradient6)" text-rendering="geometricPrecision" shape-rendering="geometricPrecision" transform="matrix(1,0,0,1,-259,-38)" stroke="url(#linearGradient6)">
      <path d="M662.5 205.92 L742.5 205.92 L742.5 245.92 L662.5 245.92 Z" stroke="none" clip-path="url(#clipPath2)"/>
    </g>
    <g text-rendering="geometricPrecision" stroke-miterlimit="1.45" shape-rendering="geometricPrecision" transform="matrix(1,0,0,1,-259,-38)" stroke-linecap="butt">
      <path fill="none" d="M662.5 205.92 L742.5 205.92 L742.5 245.92 L662.5 245.92 Z" clip-path="url(#clipPath2)"/>
      <text x="666.96" xml:space="preserve" y="230.0743" clip-path="url(#clipPath2)" font-family="sans-serif" stroke="none">close relays</text>
    </g>
    <g fill="url(#linearGradient7)" text-rendering="geometricPrecision" shape-rendering="geometricPrecision" transform="matrix(1,0,0,1,-259,-38)" stroke="url(#linearGradient7)">
      <path d="M461.67 470.32 L541.67 470.32 L541.67 510.32 L461.67 510.32 Z" stroke="none" clip-path="url(#clipPath2)"/>
    </g>
    <g text-rendering="geometricPrecision" stroke-miterlimit="1.45" shape-rendering="geometricPrecision" transform="matrix(1,0,0,1,-259,-38)" stroke-linecap="butt">
      <path fill="none" d="M461.67 470.32 L541.67 470.32 L541.67 510.32 L461.67 510.32 Z" clip-path="url(#clipPath2)"/>
      <text x="483.4942" xml:space="preserve" y="494.4743" clip-path="url(#clipPath2)" font-family="sans-serif" stroke="none">wait T</text>
    </g>
    <g fill="url(#linearGradient8)" text-rendering="geometricPrecision" shape-rendering="geometricPrecision" transform="matrix(1,0,0,1,-259,-38)" stroke="url(#linearGradient8)">
      <path d="M499.5 191.52 L576.5 225.92 L499.5 260.32 L422.5 225.92 Z" stroke="none" clip-path="url(#clipPath2)"/>
    </g>
    <g text-rendering="geometricPrecision" stroke-miterlimit="1.45" shape-rendering="geometricPrecision" transform="matrix(1,0,0,1,-259,-38)" stroke-linecap="butt">
      <path fill="none" d="M499.5 191.52 L576.5 225.92 L499.5 260.32 L422.5 225.92 Z" clip-path="url(#clipPath2)"/>
      <text x="466.1162" xml:space="preserve" y="216.1055" clip-path="url(#clipPath2)" font-family="sans-serif" stroke="none">vIn &gt; Vmin</text>
      <text x="486.3047" xml:space="preserve" y="230.0743" clip-path="url(#clipPath2)" font-family="sans-serif" stroke="none">and </text>
      <text x="461.5635" xml:space="preserve" y="244.043" clip-path="url(#clipPath2)" font-family="sans-serif" stroke="none">Vin &gt; vOut ?</text>
    </g>
    <g text-rendering="geometricPrecision" stroke-miterlimit="1.45" shape-rendering="geometricPrecision" transform="matrix(1,0,0,1,-259,-38)" stroke-linecap="butt">
      <path fill="none" d="M353.9894 130 L434.6954 130" clip-path="url(#clipPath2)"/>
    </g>
    <g text-rendering="geometricPrecision" stroke-miterlimit="1.45" shape-rendering="geometricPrecision" transform="matrix(1,0,0,1,-259,-38)" stroke-linecap="butt">
      <path d="M442.6954 130 L430.6954 125 L433.6954 130 L430.6954 135 Z" stroke="none" clip-path="url(#clipPath2)"/>
      <path fill="none" d="M556.2468 130 L654.4732 130" clip-path="url(#clipPath2)"/>
      <path d="M662.4732 130 L650.4732 125 L653.4732 130 L650.4732 135 Z" clip-path="url(#clipPath2)" stroke="none"/>
      <text x="601.9164" xml:space="preserve" y="164.1543" clip-path="url(#clipPath2)" font-family="sans-serif" stroke="none">no</text>
      <path fill="none" d="M702.5 110.0242 L702.5 71.64 L557.74 71.64 L521.6163 107.8381" clip-path="url(#clipPath2)"/>
      <path d="M515.9653 113.5008 L527.981 108.5386 L522.3228 107.1303 L520.9026 101.4749 Z" clip-path="url(#clipPath2)" stroke="none"/>
      <path fill="none" d="M501.67 341.8149 L501.67 375.3035" clip-path="url(#clipPath2)"/>
      <path d="M501.67 383.3035 L506.67 371.3035 L501.67 374.3035 L496.67 371.3035 Z" clip-path="url(#clipPath2)" stroke="none"/>
      <path fill="none" d="M560.654 400.78 L702.5 400.78 L702.5 253.9418" clip-path="url(#clipPath2)"/>
      <path d="M702.5 245.9418 L697.5 257.9418 L702.5 254.9418 L707.5 257.9418 Z" clip-path="url(#clipPath2)" stroke="none"/>
      <text x="722.3034" xml:space="preserve" y="362.9997" clip-path="url(#clipPath2)" font-family="sans-serif" stroke="none">yes</text>
      <path fill="none" d="M702.5 205.9211 L702.5 157.9812" clip-path="url(#clipPath2)"/>
      <path d="M702.5 149.9812 L697.5 161.9812 L702.5 158.9812 L707.5 161.9812 Z" clip-path="url(#clipPath2)" stroke="none"/>
      <path fill="none" d="M501.67 418.312 L501.67 462.3139" clip-path="url(#clipPath2)"/>
      <path d="M501.67 470.3139 L506.67 458.3139 L501.67 461.3139 L496.67 458.3139 Z" clip-path="url(#clipPath2)" stroke="none"/>
      <text x="464.1964" xml:space="preserve" y="448.4543" clip-path="url(#clipPath2)" font-family="sans-serif" stroke="none">no</text>
      <path fill="none" d="M541.6545 490.32 L795.44 490.32 L795.44 53.76 L499.5 53.76 L499.5 98.7115" clip-path="url(#clipPath2)"/>
      <path d="M499.5 106.7115 L504.5 94.7115 L499.5 97.7115 L494.5 94.7115 Z" clip-path="url(#clipPath2)" stroke="none"/>
      <path fill="none" d="M499.5 153.2739 L499.5 183.5032" clip-path="url(#clipPath2)"/>
      <path d="M499.5 191.5032 L504.5 179.5032 L499.5 182.5032 L494.5 179.5032 Z" clip-path="url(#clipPath2)" stroke="none"/>
      <text x="459.1318" xml:space="preserve" y="176.5443" clip-path="url(#clipPath2)" font-family="sans-serif" stroke="none">yes</text>
      <path fill="none" d="M500.2703 259.9555 L501.0359 293.7811" clip-path="url(#clipPath2)"/>
      <path d="M501.2169 301.7791 L505.9441 289.669 L501.0132 292.7814 L495.9466 289.8953 Z" clip-path="url(#clipPath2)" stroke="none"/>
      <text x="460.3721" xml:space="preserve" y="285.2143" clip-path="url(#clipPath2)" font-family="sans-serif" stroke="none">yes</text>
      <path fill="none" d="M576.4675 225.92 L654.5302 225.92" clip-path="url(#clipPath2)"/>
      <path d="M662.5302 225.92 L650.5302 220.92 L653.5302 225.92 L650.5302 230.92 Z" clip-path="url(#clipPath2)" stroke="none"/>
      <text x="612.0264" xml:space="preserve" y="260.0743" clip-path="url(#clipPath2)" font-family="sans-serif" stroke="none">no</text>
    </g>
  </g>
</svg>
